<?xml version="1.0" encoding="UTF-8" standalone="no"?><!DOCTYPE svg PUBLIC "-//W3C//DTD SVG 1.1//EN" "http://www.w3.org/Graphics/SVG/1.1/DTD/svg11.dtd"><svg width="100%" height="100%" viewBox="0 0 656 172" version="1.1" xmlns="http://www.w3.org/2000/svg" xmlns:xlink="http://www.w3.org/1999/xlink" xml:space="preserve" xmlns:serif="http://www.serif.com/" style="fill-rule:evenodd;clip-rule:evenodd;stroke-linejoin:round;stroke-miterlimit:2;"><g><path d="M13.922,108.7l-0,-15.568l36.169,0l0,-11.822l-36.169,0l-0,-15.568l42.468,0l-0,-11.917l-56.39,0l-0,66.792l57.058,0l-0,-11.917l-43.136,-0Z" style="fill:#fefffe;fill-rule:nonzero;"/><path d="M69.095,120.617l13.921,0l0,-25.767l15.848,-0c4.679,7.826 9.93,15.365 15.657,22.427c24.038,30.07 58.108,54.589 98,54.589c27.008,-0 49.339,-13.636 65.659,-34.161l-9.544,-9.164c-13.838,17.374 -33.211,29.976 -56.306,29.976c-35.311,-0 -66.136,-22.817 -87.32,-49.447c-3.91,-4.867 -7.438,-9.83 -10.871,-15.078l0.191,-0c9.154,-3.432 13.731,-11.632 13.731,-19.655c0,-10.12 -7.152,-20.226 -20.509,-20.512l-38.457,0l-0,66.792Zm13.921,-54.875l20.718,0c6.587,0 9.833,4.298 9.833,8.595c0,4.298 -3.246,8.596 -9.833,8.596l-20.718,-0l0,-17.191Z" style="fill:#fefffe;fill-rule:nonzero;"/><path d="M144.482,81.972l13.933,0l0,-28.153l-13.933,0l-0,28.153Zm-0,38.651l13.933,0l-0.006,-28.154l-13.921,0l-0.006,28.154Z" style="fill:#fefffe;fill-rule:nonzero;"/><path d="M202.691,53.825c-20.993,0.667 -32.34,16.977 -32.34,33.396c-0,16.419 11.347,32.729 32.34,33.396l30.443,0l0,-11.822l-30.348,0c-11.929,0 -17.941,-10.882 -17.941,-21.574c-0,-10.787 6.107,-21.574 18.323,-21.574l29.966,-0l0,-11.822l-30.443,0Z" style="fill:#fefffe;fill-rule:nonzero;"/><path d="M325.518,52.012l-29.392,-0.096c-14.318,0.191 -27.383,5.912 -27.383,20.032c0,15.464 15.831,18.901 28.72,21.669c9.26,1.909 17.089,3.627 17.089,9.45c-0,4.964 -5.728,7.16 -13.27,7.16l-33.588,-0l-0,12.681l32.06,-0c15.847,-0 30.151,-5.816 30.151,-20.222c0,-15.751 -16.212,-18.901 -29.101,-21.479c-9.165,-1.814 -16.803,-3.341 -16.803,-8.878c0,-5.345 5.633,-7.732 12.984,-7.732l28.533,0l0,-12.585Z" style="fill:#fefffe;fill-rule:nonzero;"/><path d="M408.448,53.825l-13.922,0l0,27.39l-37.804,-0l0,-27.39l-13.921,0l-0,66.792l13.921,0l0,-27.485l37.804,0l0,27.485l13.922,0l-0,-66.792Z" style="fill:#fefffe;fill-rule:nonzero;"/><path d="M449.205,52.871l-30.725,67.746l14.695,0l23.378,-51.332l13.454,29.394l-17.844,0l-5.439,11.918l28.722,-0l4.58,10.02l14.694,0l-30.725,-67.746l-14.79,-0Z" style="fill:#fefffe;fill-rule:nonzero;"/><path d="M368.091,40.365c17.751,-16.992 36.742,-27.016 61.937,-27.016c33.211,-0 56.783,19.856 75.488,44.961l0,62.307l13.922,0l0.286,-41.124c8.209,13.453 15.56,27.289 22.623,39.598l0.859,1.526l4.869,0l23.768,-40.361l0,40.361l13.922,0l-0,-66.792l-14.303,0l-24.915,45.705c-26.346,-46.851 -55.632,-99.53 -116.615,-99.53c-28.63,0 -50.675,11.251 -71.003,30.532l9.162,9.833Z" style="fill:#fefffe;fill-rule:nonzero;"/><path d="M600.283,120.617l13.921,0l0,-23.954l20.527,0c13.645,0 20.51,-10.678 20.51,-21.371c0,-10.598 -7.151,-21.181 -20.51,-21.467l-34.448,0l-0,66.792Zm13.921,-54.875l18.904,0c5.824,0 8.689,4.775 8.689,9.55c-0,4.775 -2.865,9.454 -8.689,9.454l-18.904,-0l0,-19.004Z" style="fill:#fefffe;fill-rule:nonzero;"/></g></svg>