<?xml version="1.0" encoding="UTF-8" standalone="no"?><!DOCTYPE svg PUBLIC "-//W3C//DTD SVG 1.1//EN" "http://www.w3.org/Graphics/SVG/1.1/DTD/svg11.dtd"><svg width="100%" height="100%" viewBox="0 0 55 22" version="1.1" xmlns="http://www.w3.org/2000/svg" xmlns:xlink="http://www.w3.org/1999/xlink" xml:space="preserve" xmlns:serif="http://www.serif.com/" style="fill-rule:evenodd;clip-rule:evenodd;stroke-linejoin:round;stroke-miterlimit:2;"><path d="M13.167,17.25l-0,-4.894l11.37,0l-0,-3.716l-11.37,0l-0,-4.894l13.35,0l-0,-3.746l-17.726,-0l-0,20.996l17.936,0l-0,-3.746l-13.56,0Z" style="fill:#fefffe;fill-rule:nonzero;"/><path d="M44.43,0.08l-9.24,-0.029c-4.501,0.057 -8.608,1.745 -8.608,5.913c0,4.565 4.977,5.58 9.028,6.397c2.911,0.564 5.372,1.071 5.372,2.79c0,1.465 -1.782,2.024 -4.153,2.024l-10.559,0.066l-0.02,3.761l10.081,-0.066c4.981,0 9.478,-1.645 9.478,-5.898c-0,-4.65 -5.067,-5.608 -9.148,-6.34c-2.881,-0.536 -5.282,-0.986 -5.282,-2.621c-0,-1.606 1.8,-2.282 4.081,-2.282l8.97,-0l-0,-3.715Z" style="fill:#fefffe;fill-rule:nonzero;"/><path d="M7.946,13.887l-4.678,-3.389l4.678,-3.389l0,-3.899l-7.946,6.058l0,2.46l7.946,6.058l0,-3.899Z" style="fill:#fefffe;fill-rule:nonzero;"/><path d="M54.604,9.268l-7.947,-6.058l0,3.899l4.678,3.389l-4.678,3.389l0,3.899l7.947,-6.058l-0,-2.46Z" style="fill:#fefffe;fill-rule:nonzero;"/></svg>